<?xml version="1.0" encoding="UTF-8" standalone="no"?>
<!-- Created with Inkscape (http://www.inkscape.org/) -->

<svg
   width="128"
   height="128"
   viewBox="0 0 33.866666 33.866666"
   version="1.1"
   id="svg5"
   inkscape:version="1.2.2 (b0a8486541, 2022-12-01)"
   sodipodi:docname="drinstaller.svg"
   xml:space="preserve"
   inkscape:export-filename="drinstaller.png"
   inkscape:export-xdpi="96"
   inkscape:export-ydpi="96"
   xmlns:inkscape="http://www.inkscape.org/namespaces/inkscape"
   xmlns:sodipodi="http://sodipodi.sourceforge.net/DTD/sodipodi-0.dtd"
   xmlns:xlink="http://www.w3.org/1999/xlink"
   xmlns="http://www.w3.org/2000/svg"
   xmlns:svg="http://www.w3.org/2000/svg"
   xmlns:i="http://ns.adobe.com/AdobeIllustrator/10.0/"><sodipodi:namedview
     id="namedview7"
     pagecolor="#ffffff"
     bordercolor="#666666"
     borderopacity="1.0"
     inkscape:showpageshadow="2"
     inkscape:pageopacity="0.0"
     inkscape:pagecheckerboard="0"
     inkscape:deskcolor="#d1d1d1"
     inkscape:document-units="mm"
     showgrid="false"
     inkscape:zoom="5.2952301"
     inkscape:cx="51.272559"
     inkscape:cy="76.578353"
     inkscape:window-width="1920"
     inkscape:window-height="1052"
     inkscape:window-x="1920"
     inkscape:window-y="0"
     inkscape:window-maximized="1"
     inkscape:current-layer="layer1" /><defs
     id="defs2" /><g
     inkscape:label="Computer"
     inkscape:groupmode="layer"
     id="layer1"><g
       id="g538"
       transform="matrix(0.0799183,0,0,0.0799183,-4.5374311,-23.939727)"><rect
         style="fill:#000000;fill-opacity:1;fill-rule:nonzero;stroke:none"
         id="rect3019"
         width="340.84482"
         height="242.48021"
         x="73.526245"
         y="314.0578" /><rect
         style="fill:#d7d7d7;fill-opacity:1;fill-rule:nonzero;stroke:none"
         id="rect3023"
         width="327.13217"
         height="225.6084"
         x="80.710564"
         y="322.72314" /><rect
         style="fill:#ffffff;fill-opacity:1;fill-rule:nonzero;stroke:none"
         id="rect3025"
         width="197.71024"
         height="8.4864693"
         x="148.4252"
         y="536.71967" /><rect
         style="fill:#000000;fill-opacity:1;fill-rule:nonzero;stroke:none"
         id="rect3027"
         width="10.82021"
         height="38.040554"
         x="235.96864"
         y="552.30792" /><ellipse
         ry="14.787264"
         rx="77.542969"
         cy="265.01779"
         cx="146.3681"
         style="color:#000000;display:inline;overflow:visible;visibility:visible;fill:#000000;fill-opacity:1;fill-rule:nonzero;stroke:none;stroke-width:1;marker:none;enable-background:accumulate"
         id="path3029"
         transform="translate(94.948653,329.29792)" /><path
         style="fill:#000000;fill-opacity:1;fill-rule:nonzero;stroke:none"
         d="m 167.4297,623.97747 h 364.18091 v 76.5086 H 167.4297 Z"
         id="rect3799"
         inkscape:connector-curvature="0" /><path
         style="fill:#ffffff;fill-opacity:1;fill-rule:nonzero;stroke:none"
         d="m 253.45837,628.32872 v 9.37695 h 8.65625 v -9.37695 z m -10.71094,0.2539 v 9.37891 h 8.6543 v -9.37891 z m -10.9668,0.25586 v 9.37696 h 8.65625 v -9.37696 z m -21.16796,0.25586 v 9.37696 h 8.65625 v -9.37696 z m 10.45703,0 v 9.37696 h 8.65625 v -9.37696 z m -49.79297,0.0625 v 9.37696 h 8.65625 v -9.37696 z m 28.625,0.19141 v 9.37695 h 8.65625 v -9.37695 z m -10.9668,0.25586 v 9.37695 h 8.65625 v -9.37695 z m 134.14649,11.47656 v 9.37695 h 8.65625 v -9.37695 z m -10.9668,0.25391 v 9.37695 h 8.65625 v -9.37695 z m -10.71094,0.25586 v 9.37695 h 8.65625 v -9.37695 z m -16.34375,1.72461 v 9.37695 h 8.65625 v -9.37695 z m -37.4668,0.0605 v 9.37696 h 8.6543 v -9.37696 z m 26.75586,0.19336 v 9.37891 h 8.65625 v -9.37891 z m -37.46875,0.0605 v 9.37695 h 8.65625 v -9.37695 z m 26.50196,0.19531 v 9.37696 h 8.65625 v -9.37696 z m -37.4668,0.0605 v 9.37695 h 8.65625 v -9.37695 z m -21.16797,0.25391 v 9.3789 h 8.65625 v -9.3789 z m 10.45703,0 v 9.3789 h 8.6543 v -9.3789 z m -21.16797,0.25585 v 9.37696 h 8.65625 v -9.37696 z m -10.96679,0.25586 v 9.37696 h 8.65625 v -9.37696 z m -10.71094,0.25391 v 9.37695 h 8.65625 v -9.37695 z m 150.72266,6.37695 v 9.37696 h 8.65625 v -9.37696 z m -10.9668,0.25391 v 9.37695 h 8.65625 v -9.37695 z m -10.71094,0.25586 v 9.37695 h 8.65625 v -9.37695 z m -53.81055,1.78516 v 9.37695 h 8.6543 v -9.37695 z m -10.71289,0.2539 v 9.37695 h 8.65625 v -9.37695 z m -10.96484,0.25586 v 9.37695 h 8.65625 v -9.37695 z m -21.16797,0.25391 v 9.3789 h 8.65625 v -9.3789 z m 10.45703,0 v 9.3789 h 8.6543 v -9.3789 z m -21.16797,0.25586 v 9.37695 h 8.65625 v -9.37695 z m -10.96679,0.25586 v 9.37695 h 8.65625 v -9.37695 z m -10.71094,0.2539 v 9.37696 h 8.65625 v -9.37696 z m 150.72266,6.58985 v 9.37695 h 8.65625 v -9.37695 z m -10.9668,0.25586 v 9.37695 h 8.65625 v -9.37695 z m -10.71094,0.2539 v 9.37891 h 8.65625 v -9.37891 z m -53.81055,1.78516 v 9.3789 h 8.6543 v -9.3789 z m -10.71289,0.25586 v 9.37695 h 8.65625 v -9.37695 z m -10.96484,0.25586 v 9.37695 h 8.65625 v -9.37695 z m -21.16797,0.2539 v 9.37696 h 8.65625 v -9.37696 z m 10.45703,0 v 9.37696 h 8.6543 v -9.37696 z m -21.16797,0.25586 v 9.37696 h 8.65625 v -9.37696 z m -10.96679,0.25391 v 9.37695 h 8.65625 v -9.37695 z m -10.71094,0.25586 v 9.37695 h 8.65625 v -9.37695 z m 103.51953,6.35547 v 9.37695 h 8.65625 v -9.37695 z m 47.20313,0.33984 v 9.37695 h 8.65625 v -9.37695 z m -10.9668,0.25586 v 9.37695 h 8.65625 v -9.37695 z m -10.71094,0.25391 v 9.37695 h 8.65625 v -9.37695 z m -53.81055,1.78515 v 9.37696 h 8.6543 v -9.37696 z m -10.71289,0.25586 v 9.37695 h 8.65625 v -9.37695 z m -10.96484,0.25391 v 9.3789 h 8.65625 v -9.3789 z m -21.16797,0.25586 v 9.37695 h 8.65625 v -9.37695 z m 10.45703,0 v 9.37695 h 8.6543 v -9.37695 z m -21.16797,0.25586 v 9.37695 h 8.65625 v -9.37695 z m -10.96679,0.2539 v 9.37696 h 8.65625 v -9.37696 z m -10.71094,0.25586 v 9.37696 h 8.65625 v -9.37696 z m 150.69922,6.54492 v 9.37891 h 8.65625 v -9.37891 z m -10.96485,0.25586 v 9.37696 h 8.65625 v -9.37696 z m -10.71093,0.25586 v 9.37696 h 8.65429 v -9.37696 z m -15.30274,1.27344 v 9.37891 h 8.65625 v -9.37891 z m -10.71093,0.25586 v 9.37695 h 8.65624 v -9.37695 z m -27.79883,0.25586 v 9.37695 h 8.65625 v -9.37695 z m 16.83203,0 v 9.37695 h 8.65625 v -9.37695 z m -27.54297,0.25391 v 9.37695 h 8.65625 v -9.37695 z m -23.7168,0.25585 v 0.25391 h -8.41601 v 9.37695 h 8.65625 v -0.2539 h 7.91992 v 0.50976 h 8.65625 v -9.37695 h -8.16016 v -0.50977 z m -17.08789,0.25391 v 9.37695 h 8.65625 v -9.37695 z m -13.00586,0.50977 v 9.3789 h 8.65625 v -9.3789 z m -10.71094,0.25586 v 9.37695 h 8.65626 v -9.37695 z"
         id="rect3801"
         inkscape:connector-curvature="0" /><g
         transform="translate(-102.69576,58.786411)"
         id="g3410"
         style="fill:#f9f9f9;fill-opacity:0;fill-rule:nonzero;stroke:none"><path
           inkscape:connector-curvature="0"
           d="m 336.38339,687.94686 51.15831,24.60188 73.6668,-38.50512 -49.65832,-15.92036 z"
           style="fill:#afafde;fill-rule:evenodd;stroke:none"
           id="path4237" /><path
           inkscape:connector-curvature="0"
           d="m 336.38339,662.94288 v 25.00398 l 75.16679,-29.8236 v -20.39417 z"
           style="fill:#353564;fill-rule:evenodd;stroke:none"
           id="path4239" /><path
           inkscape:connector-curvature="0"
           d="m 411.55018,637.72909 49.65832,13.45956 v 22.85497 l -49.65832,-15.92036 z"
           style="fill:#e9e9ff;fill-rule:evenodd;stroke:none"
           id="path4241" /><path
           inkscape:connector-curvature="0"
           d="m 336.38339,662.94288 51.15831,20.79919 73.6668,-32.55342 -49.65832,-13.45956 z"
           style="fill:#4d4d9f;fill-rule:evenodd;stroke:none"
           id="path4243" /><path
           inkscape:connector-curvature="0"
           d="m 387.5417,683.74207 v 28.80667 l 73.6668,-38.50512 v -22.85497 z"
           style="fill:#00ffff"
           id="path4245" /><path
           inkscape:connector-curvature="0"
           d="m 336.38339,662.94288 51.15831,20.79919 v 28.80667 l -51.15831,-24.60188 z"
           style="opacity:0.86;fill:#00ff00"
           id="path4247" /></g><path
         inkscape:connector-curvature="0"
         style="fill:#ffffff;fill-opacity:0;fill-rule:nonzero;stroke:none"
         d="m 265.22358,627.59751 h 16.11837 v 109.3246 h -16.11837 z"
         id="rect3424" /><path
         inkscape:connector-curvature="0"
         style="fill:#ffffff;fill-opacity:0;fill-rule:nonzero;stroke:none"
         d="m 361.23301,607.27433 h 74.98547 V 735.5205 h -74.98547 z"
         id="rect3426" /><path
         style="fill:#ffffff;fill-opacity:1;fill-rule:nonzero;stroke:none"
         d="m 338.10664,599.5655 h 230.5628 v 149.97091 h -230.5628 z"
         id="rect3428"
         inkscape:connector-curvature="0" /><ellipse
         style="color:#000000;display:inline;overflow:visible;visibility:visible;opacity:0.86;fill:#000000;fill-opacity:1;fill-rule:nonzero;stroke:#000000;stroke-width:1;stroke-linecap:butt;stroke-linejoin:miter;stroke-miterlimit:4;stroke-dasharray:none;stroke-dashoffset:0;stroke-opacity:1;marker:none;enable-background:accumulate"
         id="path4325"
         cx="318.95557"
         cy="334.37845"
         rx="21.060431"
         ry="35.183308"
         transform="translate(94.948653,329.29792)" /><path
         style="fill:#ffffff;fill-opacity:1;fill-rule:nonzero;stroke:none"
         id="path4327"
         d="m 393.32526,661.91302 c 3.58868,-0.24626 7.17179,-0.71344 10.74396,-1.15667 2.26562,-0.29359 4.52968,-0.60734 6.8095,-0.76746 2.10163,-0.15309 4.20115,-0.10437 6.30186,0.0212 3.1166,0.20367 6.08724,1.19954 9.05078,2.10526 1.85135,0.48869 3.67398,1.095 5.54201,1.51906 0.68545,0.16725 1.33934,0.56999 2.05723,0.443 0,0 0.17808,0.51081 0.17808,0.51081 v 0 c -0.79011,0.15329 -1.47609,-0.13581 -2.22717,-0.37515 -1.88224,-0.38312 -3.7217,-0.95398 -5.58564,-1.41363 -2.92977,-0.87401 -5.85952,-1.87666 -8.92592,-2.13232 -2.07867,-0.13541 -4.16456,-0.23637 -6.24675,-0.11257 -2.26006,0.20158 -4.49605,0.59088 -6.74033,0.91671 -3.59372,0.48818 -7.22479,0.98579 -10.85362,0.99528 0,0 -0.10399,-0.55354 -0.10399,-0.55354 z"
         inkscape:connector-curvature="0" /><path
         style="fill:#ffffff;fill-opacity:1;fill-rule:nonzero;stroke:none"
         id="path4329"
         d="m 414.36448,630.0173 c -0.11882,2.4088 -0.35061,4.80808 -0.54425,7.21143 -0.11715,2.46051 -0.327,4.90932 -0.56015,7.36079 -0.17786,2.23153 -0.22375,4.47131 -0.27692,6.7086 -0.0344,1.40174 -0.0332,2.80397 -0.0372,4.20604 -0.0817,1.18131 0.0851,2.33788 0.23371,3.50515 0.0225,0.63881 0.18317,1.24116 0.377,1.84408 0,0 -0.57044,0.076 -0.57044,0.076 v 0 c -0.19182,-0.63128 -0.35709,-1.26254 -0.38717,-1.92677 -0.14685,-1.18511 -0.27877,-2.36523 -0.22161,-3.56234 -0.007,-1.40641 -0.009,-2.81283 -0.006,-4.21926 0.0172,-2.252 0.0618,-4.50571 0.26734,-6.74979 0.22523,-2.45226 0.38746,-4.90392 0.51627,-7.36331 0.20494,-2.40426 0.41583,-4.80922 0.66558,-7.20844 0,0 0.54355,0.11783 0.54355,0.11783 z"
         inkscape:connector-curvature="0" /><path
         style="fill:#000000;fill-opacity:1;fill-rule:nonzero;stroke:none"
         id="path3089"
         d="m 416.53211,629.73527 c -0.0435,-0.41522 -0.0358,-0.83902 -0.13038,-1.24565 -1.16699,-5.01751 -4.13628,-9.59351 -6.72751,-13.956 -4.23449,-6.59801 -8.93684,-13.02039 -14.82847,-18.25733 -1.46071,-1.2984 -3.05212,-2.44185 -4.57818,-3.66277 -10.51626,-7.70267 -22.73038,-12.34545 -35.14513,-15.96049 -5.20265,-1.40828 -10.57443,-2.59682 -15.90684,-1.11747 -2.5214,0.6995 -4.89346,1.93357 -7.24589,3.03533 -4.97437,2.50061 -9.66865,5.49529 -14.34581,8.50117 -1.5826,1.08664 -3.30701,1.69546 -5.20056,1.88608 -0.70323,0.0517 -1.40847,0.0464 -2.11296,0.0452 0,0 -0.14726,-0.79652 -0.14726,-0.79652 v 0 c 0.68311,0.004 1.36686,0.0119 2.04913,-0.0314 1.78974,-0.16367 3.38255,-0.75207 4.84157,-1.83524 4.60803,-3.18113 9.26128,-6.31858 14.28073,-8.82875 2.61348,-1.22045 4.69342,-2.32514 7.48879,-3.10114 5.46195,-1.51626 10.96677,-0.52503 16.34936,0.81857 4.82912,1.29672 6.56383,1.66248 11.42027,3.4121 8.86239,3.19282 17.34799,7.45063 24.88652,13.13329 1.52812,1.2681 3.11959,2.46352 4.58435,3.80431 5.8665,5.37 10.56882,11.87312 14.7837,18.57158 2.57122,4.46439 5.58409,9.20277 6.43559,14.39036 0.0694,0.42279 0.0281,0.85643 0.0422,1.28464 0,0 -0.7932,-0.0898 -0.7932,-0.0898 z"
         inkscape:connector-curvature="0" /><path
         style="fill:#000000;fill-opacity:1;fill-rule:nonzero;stroke:none"
         id="path3091"
         d="m 269.37534,628.20571 c -0.0764,-2.84722 -0.0593,-5.69643 -0.0419,-8.5444 0.0819,-2.13727 0.0164,-4.26708 -0.69872,-6.29721 -0.5437,-1.36438 -1.35913,-2.59841 -2.00338,-3.91896 -0.11345,-0.21 -0.2269,-0.42 -0.34035,-0.63 0,0 0.78128,-0.22765 0.78128,-0.22765 v 0 c 0.1139,0.21703 0.2278,0.43406 0.3417,0.65109 0.66792,1.34194 1.50676,2.59701 2.05374,3.99361 0.71806,2.11024 0.80998,4.31314 0.75362,6.52965 0.0174,2.84481 0.0347,5.69087 -0.0419,8.53492 0,0 -0.80412,-0.091 -0.80412,-0.091 z"
         inkscape:connector-curvature="0" /></g><image
       width="17.162445"
       height="17.162445"
       preserveAspectRatio="none"
       xlink:href="DV_Resolve.png"
       id="image1723"
       x="18.236795"
       y="-1.6627204" /><g
       style="overflow:visible"
       id="g494"
       transform="matrix(0.11270788,0,0,0.11270788,8.1918399,2.0686573)"><g
         id="Layer_1"
         i:layer="yes"
         i:dimmedPercent="50"
         i:rgbTrio="#4F008000FFFF">
		<g
   id="g464">
			<path
   i:knockout="Off"
   fill="#a80030"
   d="m 60.969,47.645 c -1.494,0.02 0.281,0.768 2.232,1.069 0.541,-0.422 1.027,-0.846 1.463,-1.26 -1.213,0.297 -2.449,0.304 -3.695,0.191"
   id="path426" />
			<path
   i:knockout="Off"
   fill="#a80030"
   d="m 68.986,45.646 c 0.893,-1.229 1.541,-2.573 1.77,-3.963 -0.201,0.99 -0.736,1.845 -1.244,2.749 -2.793,1.759 -0.264,-1.044 -0.002,-2.111 -3.002,3.783 -0.414,2.268 -0.524,3.325"
   id="path428" />
			<path
   i:knockout="Off"
   fill="#a80030"
   d="m 71.949,37.942 c 0.182,-2.691 -0.529,-1.839 -0.768,-0.814 0.278,0.146 0.499,1.898 0.768,0.814"
   id="path430" />
			<path
   i:knockout="Off"
   fill="#a80030"
   d="m 55.301,1.163 c 0.798,0.142 1.724,0.252 1.591,0.443 0.876,-0.193 1.073,-0.367 -1.591,-0.443"
   id="path432" />
			<path
   i:knockout="Off"
   fill="#a80030"
   d="M 56.893,1.606 56.332,1.723 56.855,1.675 56.893,1.606"
   id="path434" />
			<path
   i:knockout="Off"
   fill="#a80030"
   d="m 81.762,38.962 c 0.09,2.416 -0.705,3.59 -1.424,5.666 l -1.293,0.643 c -1.057,2.054 0.105,1.304 -0.652,2.937 -1.652,1.467 -5.006,4.589 -6.08,4.875 -0.785,-0.017 0.531,-0.926 0.703,-1.281 -2.209,1.516 -1.773,2.276 -5.152,3.199 L 67.766,54.78 c -8.33,3.92 -19.902,-3.847 -19.75,-14.443 -0.088,0.672 -0.253,0.504 -0.437,0.774 -0.43,-5.451 2.518,-10.926 7.49,-13.165 4.863,-2.406 10.564,-1.42 14.045,1.829 -1.912,-2.506 -5.721,-5.163 -10.232,-4.917 -4.421,0.072 -8.558,2.881 -9.938,5.932 -2.264,1.425 -2.528,5.496 -3.514,6.242 -1.329,9.76 2.497,13.975 8.97,18.936 1.016,0.686 0.286,0.791 0.422,1.313 -2.15,-1.006 -4.118,-2.526 -5.738,-4.387 0.86,1.257 1.787,2.479 2.986,3.439 -2.029,-0.685 -4.738,-4.913 -5.527,-5.085 3.495,6.258 14.178,10.975 19.775,8.634 -2.59,0.096 -5.879,0.053 -8.787,-1.022 -1.225,-0.629 -2.884,-1.93 -2.587,-2.173 7.636,2.851 15.522,2.158 22.128,-3.137 1.682,-1.31 3.518,-3.537 4.049,-3.567 -0.799,1.202 0.137,0.578 -0.477,1.639 1.672,-2.701 -0.729,-1.1 1.73,-4.664 l 0.908,1.25 c -0.34,-2.244 2.785,-4.966 2.467,-8.512 0.717,-1.084 0.799,1.168 0.039,3.662 1.055,-2.767 0.279,-3.212 0.549,-5.496 0.291,0.768 0.678,1.583 0.875,2.394 -0.688,-2.675 0.703,-4.503 1.049,-6.058 -0.342,-0.15 -1.061,1.182 -1.227,-1.976 0.025,-1.372 0.383,-0.719 0.52,-1.057 -0.268,-0.155 -0.975,-1.207 -1.404,-3.224 0.309,-0.475 0.832,1.229 1.256,1.298 -0.273,-1.603 -0.742,-2.826 -0.762,-4.057 -1.24,-2.59 -0.439,0.346 -1.443,-1.112 -1.32,-4.114 1.094,-0.955 1.258,-2.823 1.998,2.895 3.137,7.385 3.662,9.244 -0.4,-2.267 -1.045,-4.464 -1.834,-6.589 0.609,0.257 -0.979,-4.663 0.791,-1.405 C 87.189,15.552 81,9.062 75.305,6.018 76,6.655 76.879,7.455 76.565,7.581 73.731,5.896 74.229,5.763 73.823,5.051 71.518,4.112 71.364,5.128 69.839,5.053 65.489,2.745 64.651,2.99 60.648,1.546 L 60.83,2.398 C 57.949,1.438 57.473,2.76 54.36,2.4 54.171,2.253 55.358,1.864 56.336,1.723 53.55,2.091 53.68,1.173 50.954,1.824 51.625,1.353 52.337,1.04 53.053,0.64 50.782,0.778 47.629,1.962 48.602,0.884 44.897,2.538 38.316,4.859 34.623,8.322 L 34.507,7.546 c -1.692,2.031 -7.379,6.066 -7.832,8.699 l -0.453,0.105 c -0.879,1.491 -1.45,3.18 -2.148,4.713 -1.151,1.963 -1.688,0.756 -1.524,1.064 -2.265,4.592 -3.392,8.45 -4.363,11.616 0.692,1.035 0.017,6.232 0.278,10.391 -1.136,20.544 14.418,40.489 31.42,45.093 2.492,0.893 6.197,0.861 9.349,0.949 -3.718,-1.064 -4.198,-0.563 -7.822,-1.826 -2.613,-1.232 -3.185,-2.637 -5.037,-4.244 l 0.733,1.295 c -3.63,-1.285 -2.111,-1.59 -5.065,-2.525 l 0.783,-1.021 c -1.177,-0.09 -3.117,-1.982 -3.647,-3.033 l -1.288,0.051 c -1.546,-1.906 -2.371,-3.283 -2.31,-4.35 l -0.416,0.742 c -0.471,-0.809 -5.691,-7.158 -2.983,-5.68 -0.503,-0.458 -1.172,-0.747 -1.897,-2.066 l 0.551,-0.629 c -1.301,-1.677 -2.398,-3.826 -2.314,-4.542 0.695,0.938 1.177,1.114 1.655,1.275 -3.291,-8.164 -3.476,-0.449 -5.967,-8.31 l 0.526,-0.042 c -0.403,-0.611 -0.65,-1.27 -0.974,-1.919 l 0.23,-2.285 c -2.368,-2.736 -0.662,-11.645 -0.319,-16.53 0.235,-1.986 1.977,-4.101 3.3,-7.418 l -0.806,-0.138 c 1.542,-2.688 8.802,-10.799 12.166,-10.383 1.629,-2.046 -0.324,-0.008 -0.643,-0.522 3.579,-3.703 4.704,-2.616 7.119,-3.283 2.603,-1.545 -2.235,0.604 -1.001,-0.589 4.503,-1.149 3.19,-2.614 9.063,-3.197 0.62,0.352 -1.437,0.544 -1.953,1.001 3.75,-1.836 11.869,-1.417 17.145,1.018 6.117,2.861 12.994,11.314 13.266,19.267 l 0.309,0.083 c -0.156,3.162 0.484,6.819 -0.627,10.177 l 0.751,-1.591"
   id="path436" />
			<path
   i:knockout="Off"
   fill="#a80030"
   d="m 44.658,49.695 -0.211,1.047 c 0.983,1.335 1.763,2.781 3.016,3.821 -0.902,-1.759 -1.571,-2.486 -2.805,-4.868"
   id="path438" />
			<path
   i:knockout="Off"
   fill="#a80030"
   d="m 46.979,49.605 c -0.52,-0.576 -0.826,-1.268 -1.172,-1.956 0.33,1.211 1.006,2.252 1.633,3.312 l -0.461,-1.356"
   id="path440" />
			<path
   i:knockout="Off"
   fill="#a80030"
   d="m 88.063,40.675 -0.219,0.552 c -0.402,2.858 -1.273,5.686 -2.605,8.309 1.472,-2.767 2.421,-5.794 2.824,-8.861"
   id="path442" />
			<path
   i:knockout="Off"
   fill="#a80030"
   d="M 55.598,0.446 C 56.607,0.077 58.08,0.243 59.154,0 57.756,0.117 56.365,0.187 54.992,0.362 l 0.606,0.084"
   id="path444" />
			<path
   i:knockout="Off"
   fill="#a80030"
   d="m 20.127,19.308 c 0.233,2.154 -1.62,2.991 0.41,1.569 1.09,-2.454 -0.424,-0.677 -0.41,-1.569"
   id="path446" />
			<path
   i:knockout="Off"
   fill="#a80030"
   d="m 17.739,29.282 c 0.469,-1.437 0.553,-2.299 0.732,-3.132 -1.293,1.654 -0.596,2.007 -0.732,3.132"
   id="path448" />
			<path
   i:knockout="Off"
   d="m 13.437,125.506 c -0.045,0.047 -0.045,7.506 -0.138,9.453 -0.092,1.574 -0.232,4.957 -3.568,4.957 -3.429,0 -4.263,-3.939 -4.541,-5.652 -0.324,-1.9 -0.324,-3.477 -0.324,-4.17 0,-2.225 0.139,-8.436 5.375,-8.436 1.576,0 2.456,0.465 3.151,0.834 z M 0,130.975 c 0,13.066 6.951,13.066 7.97,13.066 2.873,0 4.727,-1.576 5.514,-4.309 l 0.093,4.123 c 0.881,-0.047 1.761,-0.139 3.197,-0.139 0.51,0 0.926,0 1.298,0.047 0.371,0 0.741,0.045 1.158,0.092 -0.741,-1.482 -1.297,-4.818 -1.297,-12.049 0,-7.043 0,-18.951 0.602,-22.566 -1.667,0.789 -3.105,1.299 -6.256,1.576 1.251,1.344 1.251,2.039 1.251,8.154 -0.879,-0.277 -1.992,-0.602 -3.892,-0.602 C 1.344,118.369 0,125.598 0,130.975"
   id="path450" />
			<path
   i:knockout="Off"
   d="m 25.13,128.609 c 0.047,-3.846 0.835,-7.275 4.124,-7.275 3.615,0 3.891,3.984 3.799,7.275 z m 12.51,0.465 c 0,-5.422 -1.065,-10.752 -7.923,-10.752 -9.452,0 -9.452,10.475 -9.452,12.697 0,9.406 4.216,13.113 11.306,13.113 3.149,0 4.68,-0.461 5.514,-0.695 -0.046,-1.668 0.185,-2.734 0.465,-4.17 -0.975,0.604 -2.226,1.391 -5.006,1.391 -7.229,0 -7.322,-6.582 -7.322,-8.852 H 37.55 l 0.09,-2.732"
   id="path452" />
			<path
   i:knockout="Off"
   d="m 52.715,131.066 c 0,4.309 -0.787,10.102 -6.162,10.102 -0.742,0 -1.668,-0.141 -2.27,-0.279 -0.093,-1.668 -0.093,-4.541 -0.093,-7.877 0,-3.986 0.416,-6.068 0.742,-7.09 0.972,-3.289 3.15,-3.334 3.566,-3.334 3.522,0 4.217,4.865 4.217,8.478 z m -13.298,5.051 c 0,3.43 0,5.375 -0.556,6.857 1.9,0.742 4.262,1.158 7.09,1.158 1.807,0 7.043,0 9.869,-5.791 1.344,-2.688 1.807,-6.303 1.807,-9.037 0,-1.668 -0.186,-5.328 -1.529,-7.646 -1.296,-2.176 -3.382,-3.289 -5.605,-3.289 -4.449,0 -5.746,3.707 -6.44,5.607 0,-2.363 0.045,-10.611 0.415,-14.828 -3.011,1.391 -4.866,1.621 -6.857,1.807 1.807,0.74 1.807,3.801 1.807,13.764 v 11.398"
   id="path454" />
			<path
   i:knockout="Off"
   d="m 66.535,143.855 c -0.928,-0.139 -1.578,-0.232 -2.922,-0.232 -1.48,0 -2.502,0.094 -3.566,0.232 0.463,-0.881 0.648,-1.299 0.787,-4.309 0.186,-4.125 0.232,-15.154 -0.092,-17.471 -0.232,-1.762 -0.648,-2.039 -1.297,-2.502 3.799,-0.371 4.865,-0.648 6.625,-1.482 -0.369,2.037 -0.418,3.059 -0.418,6.162 -0.091,15.989 -0.138,17.702 0.883,19.602"
   id="path456" />
			<path
   i:knockout="Off"
   d="m 81.373,130.74 c -0.092,2.92 -0.139,4.959 -0.928,6.58 -0.973,2.086 -2.594,2.688 -3.799,2.688 -2.783,0 -3.383,-2.316 -3.383,-4.586 0,-4.355 3.893,-4.682 5.652,-4.682 z m -12.744,5.701 c 0,2.92 0.881,5.838 3.477,7.09 1.158,0.51 2.316,0.51 2.688,0.51 4.264,0 5.699,-3.152 6.58,-5.098 -0.047,2.039 0,3.289 0.139,4.912 0.834,-0.047 1.668,-0.139 3.059,-0.139 0.787,0 1.529,0.092 2.316,0.139 -0.51,-0.787 -0.787,-1.252 -0.928,-3.059 -0.092,-1.76 -0.092,-3.521 -0.092,-5.977 l 0.047,-9.453 c 0,-3.523 -0.928,-6.998 -7.879,-6.998 -4.586,0 -7.273,1.391 -8.617,2.086 0.557,1.02 1.02,1.898 1.436,3.893 1.809,-1.576 4.172,-2.41 6.58,-2.41 3.848,0 3.848,2.549 3.848,6.162 -0.881,-0.045 -1.623,-0.137 -2.875,-0.137 -5.887,10e-4 -9.779,2.268 -9.779,8.479"
   id="path458" />
			<path
   i:knockout="Off"
   d="m 108.063,139.268 c 0.047,1.576 0.047,3.244 0.695,4.588 -1.021,-0.092 -1.623,-0.232 -3.521,-0.232 -1.113,0 -1.715,0.094 -2.596,0.232 0.184,-0.602 0.279,-0.834 0.371,-1.623 0.139,-1.064 0.232,-4.633 0.232,-5.885 v -5.004 c 0,-2.178 0,-5.33 -0.141,-6.441 -0.092,-0.787 -0.322,-2.918 -3.012,-2.918 -2.641,0 -3.521,1.945 -3.846,3.521 -0.369,1.621 -0.369,3.383 -0.369,10.24 0.045,5.932 0.045,6.486 0.508,8.109 -0.787,-0.092 -1.76,-0.184 -3.15,-0.184 -1.113,0 -1.854,0.045 -2.779,0.184 0.324,-0.742 0.51,-1.113 0.602,-3.707 0.094,-2.549 0.279,-15.061 -0.141,-18.025 -0.23,-1.809 -0.695,-2.225 -1.203,-2.688 3.754,-0.186 4.957,-0.789 6.117,-1.389 v 4.91 c 0.555,-1.438 1.713,-4.635 6.348,-4.635 5.793,0 5.838,4.217 5.885,6.996 v 13.951"
   id="path460" />
			<path
   i:knockout="Off"
   fill="#a80030"
   d="m 66.926,111.533 -3.838,3.836 -3.836,-3.836 3.836,-3.836 3.838,3.836"
   id="path462" />
		</g>
	</g></g></g></svg>
