<?xml version="1.0" encoding="UTF-8" standalone="no"?>
<!-- Created with Inkscape (http://www.inkscape.org/) -->

<svg
   width="128"
   height="128"
   viewBox="0 0 33.866666 33.866666"
   version="1.1"
   id="svg5"
   inkscape:version="1.2.2 (b0a8486541, 2022-12-01)"
   sodipodi:docname="InstallDavinci.svg"
   xml:space="preserve"
   inkscape:export-filename="InstallDavinci.png"
   inkscape:export-xdpi="96"
   inkscape:export-ydpi="96"
   xmlns:inkscape="http://www.inkscape.org/namespaces/inkscape"
   xmlns:sodipodi="http://sodipodi.sourceforge.net/DTD/sodipodi-0.dtd"
   xmlns:xlink="http://www.w3.org/1999/xlink"
   xmlns="http://www.w3.org/2000/svg"
   xmlns:svg="http://www.w3.org/2000/svg"><sodipodi:namedview
     id="namedview7"
     pagecolor="#ffffff"
     bordercolor="#666666"
     borderopacity="1.0"
     inkscape:showpageshadow="2"
     inkscape:pageopacity="0.0"
     inkscape:pagecheckerboard="0"
     inkscape:deskcolor="#d1d1d1"
     inkscape:document-units="mm"
     showgrid="false"
     inkscape:zoom="5.2952301"
     inkscape:cx="62.792361"
     inkscape:cy="76.389504"
     inkscape:window-width="1920"
     inkscape:window-height="1008"
     inkscape:window-x="0"
     inkscape:window-y="0"
     inkscape:window-maximized="1"
     inkscape:current-layer="layer1" /><defs
     id="defs2" /><g
     inkscape:label="Computer"
     inkscape:groupmode="layer"
     id="layer1"><g
       id="g538"
       transform="matrix(0.0799183,0,0,0.0799183,-4.5374311,-23.939727)"><rect
         style="fill:#000000;fill-opacity:1;fill-rule:nonzero;stroke:none"
         id="rect3019"
         width="340.84482"
         height="242.48021"
         x="73.526245"
         y="314.0578" /><rect
         style="fill:#d7d7d7;fill-opacity:1;fill-rule:nonzero;stroke:none"
         id="rect3023"
         width="327.13217"
         height="225.6084"
         x="80.710564"
         y="322.72314" /><rect
         style="fill:#ffffff;fill-opacity:1;fill-rule:nonzero;stroke:none"
         id="rect3025"
         width="197.71024"
         height="8.4864693"
         x="148.4252"
         y="536.71967" /><rect
         style="fill:#000000;fill-opacity:1;fill-rule:nonzero;stroke:none"
         id="rect3027"
         width="10.82021"
         height="38.040554"
         x="235.96864"
         y="552.30792" /><ellipse
         ry="14.787264"
         rx="77.542969"
         cy="265.01779"
         cx="146.3681"
         style="color:#000000;display:inline;overflow:visible;visibility:visible;fill:#000000;fill-opacity:1;fill-rule:nonzero;stroke:none;stroke-width:1;marker:none;enable-background:accumulate"
         id="path3029"
         transform="translate(94.948653,329.29792)" /><path
         style="fill:#000000;fill-opacity:1;fill-rule:nonzero;stroke:none"
         d="m 167.4297,623.97747 h 364.18091 v 76.5086 H 167.4297 Z"
         id="rect3799"
         inkscape:connector-curvature="0" /><path
         style="fill:#ffffff;fill-opacity:1;fill-rule:nonzero;stroke:none"
         d="m 253.45837,628.32872 v 9.37695 h 8.65625 v -9.37695 z m -10.71094,0.2539 v 9.37891 h 8.6543 v -9.37891 z m -10.9668,0.25586 v 9.37696 h 8.65625 v -9.37696 z m -21.16796,0.25586 v 9.37696 h 8.65625 v -9.37696 z m 10.45703,0 v 9.37696 h 8.65625 v -9.37696 z m -49.79297,0.0625 v 9.37696 h 8.65625 v -9.37696 z m 28.625,0.19141 v 9.37695 h 8.65625 v -9.37695 z m -10.9668,0.25586 v 9.37695 h 8.65625 v -9.37695 z m 134.14649,11.47656 v 9.37695 h 8.65625 v -9.37695 z m -10.9668,0.25391 v 9.37695 h 8.65625 v -9.37695 z m -10.71094,0.25586 v 9.37695 h 8.65625 v -9.37695 z m -16.34375,1.72461 v 9.37695 h 8.65625 v -9.37695 z m -37.4668,0.0605 v 9.37696 h 8.6543 v -9.37696 z m 26.75586,0.19336 v 9.37891 h 8.65625 v -9.37891 z m -37.46875,0.0605 v 9.37695 h 8.65625 v -9.37695 z m 26.50196,0.19531 v 9.37696 h 8.65625 v -9.37696 z m -37.4668,0.0605 v 9.37695 h 8.65625 v -9.37695 z m -21.16797,0.25391 v 9.3789 h 8.65625 v -9.3789 z m 10.45703,0 v 9.3789 h 8.6543 v -9.3789 z m -21.16797,0.25585 v 9.37696 h 8.65625 v -9.37696 z m -10.96679,0.25586 v 9.37696 h 8.65625 v -9.37696 z m -10.71094,0.25391 v 9.37695 h 8.65625 v -9.37695 z m 150.72266,6.37695 v 9.37696 h 8.65625 v -9.37696 z m -10.9668,0.25391 v 9.37695 h 8.65625 v -9.37695 z m -10.71094,0.25586 v 9.37695 h 8.65625 v -9.37695 z m -53.81055,1.78516 v 9.37695 h 8.6543 v -9.37695 z m -10.71289,0.2539 v 9.37695 h 8.65625 v -9.37695 z m -10.96484,0.25586 v 9.37695 h 8.65625 v -9.37695 z m -21.16797,0.25391 v 9.3789 h 8.65625 v -9.3789 z m 10.45703,0 v 9.3789 h 8.6543 v -9.3789 z m -21.16797,0.25586 v 9.37695 h 8.65625 v -9.37695 z m -10.96679,0.25586 v 9.37695 h 8.65625 v -9.37695 z m -10.71094,0.2539 v 9.37696 h 8.65625 v -9.37696 z m 150.72266,6.58985 v 9.37695 h 8.65625 v -9.37695 z m -10.9668,0.25586 v 9.37695 h 8.65625 v -9.37695 z m -10.71094,0.2539 v 9.37891 h 8.65625 v -9.37891 z m -53.81055,1.78516 v 9.3789 h 8.6543 v -9.3789 z m -10.71289,0.25586 v 9.37695 h 8.65625 v -9.37695 z m -10.96484,0.25586 v 9.37695 h 8.65625 v -9.37695 z m -21.16797,0.2539 v 9.37696 h 8.65625 v -9.37696 z m 10.45703,0 v 9.37696 h 8.6543 v -9.37696 z m -21.16797,0.25586 v 9.37696 h 8.65625 v -9.37696 z m -10.96679,0.25391 v 9.37695 h 8.65625 v -9.37695 z m -10.71094,0.25586 v 9.37695 h 8.65625 v -9.37695 z m 103.51953,6.35547 v 9.37695 h 8.65625 v -9.37695 z m 47.20313,0.33984 v 9.37695 h 8.65625 v -9.37695 z m -10.9668,0.25586 v 9.37695 h 8.65625 v -9.37695 z m -10.71094,0.25391 v 9.37695 h 8.65625 v -9.37695 z m -53.81055,1.78515 v 9.37696 h 8.6543 v -9.37696 z m -10.71289,0.25586 v 9.37695 h 8.65625 v -9.37695 z m -10.96484,0.25391 v 9.3789 h 8.65625 v -9.3789 z m -21.16797,0.25586 v 9.37695 h 8.65625 v -9.37695 z m 10.45703,0 v 9.37695 h 8.6543 v -9.37695 z m -21.16797,0.25586 v 9.37695 h 8.65625 v -9.37695 z m -10.96679,0.2539 v 9.37696 h 8.65625 v -9.37696 z m -10.71094,0.25586 v 9.37696 h 8.65625 v -9.37696 z m 150.69922,6.54492 v 9.37891 h 8.65625 v -9.37891 z m -10.96485,0.25586 v 9.37696 h 8.65625 v -9.37696 z m -10.71093,0.25586 v 9.37696 h 8.65429 v -9.37696 z m -15.30274,1.27344 v 9.37891 h 8.65625 v -9.37891 z m -10.71093,0.25586 v 9.37695 h 8.65624 v -9.37695 z m -27.79883,0.25586 v 9.37695 h 8.65625 v -9.37695 z m 16.83203,0 v 9.37695 h 8.65625 v -9.37695 z m -27.54297,0.25391 v 9.37695 h 8.65625 v -9.37695 z m -23.7168,0.25585 v 0.25391 h -8.41601 v 9.37695 h 8.65625 v -0.2539 h 7.91992 v 0.50976 h 8.65625 v -9.37695 h -8.16016 v -0.50977 z m -17.08789,0.25391 v 9.37695 h 8.65625 v -9.37695 z m -13.00586,0.50977 v 9.3789 h 8.65625 v -9.3789 z m -10.71094,0.25586 v 9.37695 h 8.65626 v -9.37695 z"
         id="rect3801"
         inkscape:connector-curvature="0" /><g
         transform="translate(-102.69576,58.786411)"
         id="g3410"
         style="fill:#f9f9f9;fill-opacity:0;fill-rule:nonzero;stroke:none"><path
           inkscape:connector-curvature="0"
           d="m 336.38339,687.94686 51.15831,24.60188 73.6668,-38.50512 -49.65832,-15.92036 z"
           style="fill:#afafde;fill-rule:evenodd;stroke:none"
           id="path4237" /><path
           inkscape:connector-curvature="0"
           d="m 336.38339,662.94288 v 25.00398 l 75.16679,-29.8236 v -20.39417 z"
           style="fill:#353564;fill-rule:evenodd;stroke:none"
           id="path4239" /><path
           inkscape:connector-curvature="0"
           d="m 411.55018,637.72909 49.65832,13.45956 v 22.85497 l -49.65832,-15.92036 z"
           style="fill:#e9e9ff;fill-rule:evenodd;stroke:none"
           id="path4241" /><path
           inkscape:connector-curvature="0"
           d="m 336.38339,662.94288 51.15831,20.79919 73.6668,-32.55342 -49.65832,-13.45956 z"
           style="fill:#4d4d9f;fill-rule:evenodd;stroke:none"
           id="path4243" /><path
           inkscape:connector-curvature="0"
           d="m 387.5417,683.74207 v 28.80667 l 73.6668,-38.50512 v -22.85497 z"
           style="fill:#00ffff"
           id="path4245" /><path
           inkscape:connector-curvature="0"
           d="m 336.38339,662.94288 51.15831,20.79919 v 28.80667 l -51.15831,-24.60188 z"
           style="opacity:0.86;fill:#00ff00"
           id="path4247" /></g><path
         inkscape:connector-curvature="0"
         style="fill:#ffffff;fill-opacity:0;fill-rule:nonzero;stroke:none"
         d="m 265.22358,627.59751 h 16.11837 v 109.3246 h -16.11837 z"
         id="rect3424" /><path
         inkscape:connector-curvature="0"
         style="fill:#ffffff;fill-opacity:0;fill-rule:nonzero;stroke:none"
         d="m 361.23301,607.27433 h 74.98547 V 735.5205 h -74.98547 z"
         id="rect3426" /><path
         style="fill:#ffffff;fill-opacity:1;fill-rule:nonzero;stroke:none"
         d="m 338.10664,599.5655 h 230.5628 v 149.97091 h -230.5628 z"
         id="rect3428"
         inkscape:connector-curvature="0" /><ellipse
         style="color:#000000;display:inline;overflow:visible;visibility:visible;opacity:0.86;fill:#000000;fill-opacity:1;fill-rule:nonzero;stroke:#000000;stroke-width:1;stroke-linecap:butt;stroke-linejoin:miter;stroke-miterlimit:4;stroke-dasharray:none;stroke-dashoffset:0;stroke-opacity:1;marker:none;enable-background:accumulate"
         id="path4325"
         cx="318.95557"
         cy="334.37845"
         rx="21.060431"
         ry="35.183308"
         transform="translate(94.948653,329.29792)" /><path
         style="fill:#ffffff;fill-opacity:1;fill-rule:nonzero;stroke:none"
         id="path4327"
         d="m 393.32526,661.91302 c 3.58868,-0.24626 7.17179,-0.71344 10.74396,-1.15667 2.26562,-0.29359 4.52968,-0.60734 6.8095,-0.76746 2.10163,-0.15309 4.20115,-0.10437 6.30186,0.0212 3.1166,0.20367 6.08724,1.19954 9.05078,2.10526 1.85135,0.48869 3.67398,1.095 5.54201,1.51906 0.68545,0.16725 1.33934,0.56999 2.05723,0.443 0,0 0.17808,0.51081 0.17808,0.51081 v 0 c -0.79011,0.15329 -1.47609,-0.13581 -2.22717,-0.37515 -1.88224,-0.38312 -3.7217,-0.95398 -5.58564,-1.41363 -2.92977,-0.87401 -5.85952,-1.87666 -8.92592,-2.13232 -2.07867,-0.13541 -4.16456,-0.23637 -6.24675,-0.11257 -2.26006,0.20158 -4.49605,0.59088 -6.74033,0.91671 -3.59372,0.48818 -7.22479,0.98579 -10.85362,0.99528 0,0 -0.10399,-0.55354 -0.10399,-0.55354 z"
         inkscape:connector-curvature="0" /><path
         style="fill:#ffffff;fill-opacity:1;fill-rule:nonzero;stroke:none"
         id="path4329"
         d="m 414.36448,630.0173 c -0.11882,2.4088 -0.35061,4.80808 -0.54425,7.21143 -0.11715,2.46051 -0.327,4.90932 -0.56015,7.36079 -0.17786,2.23153 -0.22375,4.47131 -0.27692,6.7086 -0.0344,1.40174 -0.0332,2.80397 -0.0372,4.20604 -0.0817,1.18131 0.0851,2.33788 0.23371,3.50515 0.0225,0.63881 0.18317,1.24116 0.377,1.84408 0,0 -0.57044,0.076 -0.57044,0.076 v 0 c -0.19182,-0.63128 -0.35709,-1.26254 -0.38717,-1.92677 -0.14685,-1.18511 -0.27877,-2.36523 -0.22161,-3.56234 -0.007,-1.40641 -0.009,-2.81283 -0.006,-4.21926 0.0172,-2.252 0.0618,-4.50571 0.26734,-6.74979 0.22523,-2.45226 0.38746,-4.90392 0.51627,-7.36331 0.20494,-2.40426 0.41583,-4.80922 0.66558,-7.20844 0,0 0.54355,0.11783 0.54355,0.11783 z"
         inkscape:connector-curvature="0" /><path
         style="fill:#000000;fill-opacity:1;fill-rule:nonzero;stroke:none"
         id="path3089"
         d="m 416.53211,629.73527 c -0.0435,-0.41522 -0.0358,-0.83902 -0.13038,-1.24565 -1.16699,-5.01751 -4.13628,-9.59351 -6.72751,-13.956 -4.23449,-6.59801 -8.93684,-13.02039 -14.82847,-18.25733 -1.46071,-1.2984 -3.05212,-2.44185 -4.57818,-3.66277 -10.51626,-7.70267 -22.73038,-12.34545 -35.14513,-15.96049 -5.20265,-1.40828 -10.57443,-2.59682 -15.90684,-1.11747 -2.5214,0.6995 -4.89346,1.93357 -7.24589,3.03533 -4.97437,2.50061 -9.66865,5.49529 -14.34581,8.50117 -1.5826,1.08664 -3.30701,1.69546 -5.20056,1.88608 -0.70323,0.0517 -1.40847,0.0464 -2.11296,0.0452 0,0 -0.14726,-0.79652 -0.14726,-0.79652 v 0 c 0.68311,0.004 1.36686,0.0119 2.04913,-0.0314 1.78974,-0.16367 3.38255,-0.75207 4.84157,-1.83524 4.60803,-3.18113 9.26128,-6.31858 14.28073,-8.82875 2.61348,-1.22045 4.69342,-2.32514 7.48879,-3.10114 5.46195,-1.51626 10.96677,-0.52503 16.34936,0.81857 4.82912,1.29672 6.56383,1.66248 11.42027,3.4121 8.86239,3.19282 17.34799,7.45063 24.88652,13.13329 1.52812,1.2681 3.11959,2.46352 4.58435,3.80431 5.8665,5.37 10.56882,11.87312 14.7837,18.57158 2.57122,4.46439 5.58409,9.20277 6.43559,14.39036 0.0694,0.42279 0.0281,0.85643 0.0422,1.28464 0,0 -0.7932,-0.0898 -0.7932,-0.0898 z"
         inkscape:connector-curvature="0" /><path
         style="fill:#000000;fill-opacity:1;fill-rule:nonzero;stroke:none"
         id="path3091"
         d="m 269.37534,628.20571 c -0.0764,-2.84722 -0.0593,-5.69643 -0.0419,-8.5444 0.0819,-2.13727 0.0164,-4.26708 -0.69872,-6.29721 -0.5437,-1.36438 -1.35913,-2.59841 -2.00338,-3.91896 -0.11345,-0.21 -0.2269,-0.42 -0.34035,-0.63 0,0 0.78128,-0.22765 0.78128,-0.22765 v 0 c 0.1139,0.21703 0.2278,0.43406 0.3417,0.65109 0.66792,1.34194 1.50676,2.59701 2.05374,3.99361 0.71806,2.11024 0.80998,4.31314 0.75362,6.52965 0.0174,2.84481 0.0347,5.69087 -0.0419,8.53492 0,0 -0.80412,-0.091 -0.80412,-0.091 z"
         inkscape:connector-curvature="0" /></g><image
       width="5.3368769"
       height="3.9645371"
       preserveAspectRatio="none"
       xlink:href="../../../Downloads/NVLogo_2D.jpeg"
       id="image1533"
       x="2.3494983"
       y="10.948133" /><image
       width="3.8877485"
       height="3.8877485"
       preserveAspectRatio="none"
       xlink:href="../../../Videos/Youtube/Logos/600px-Rocky_Linux_logo.png"
       id="image851"
       x="3.0740626"
       y="14.989459" /><image
       width="17.162445"
       height="17.162445"
       preserveAspectRatio="none"
       xlink:href="DV_Resolve.png"
       id="image1723"
       x="7.6015072"
       y="1.0075146" /></g></svg>
